<svg width="347" height="240" viewBox="0 0 347 240" fill="none" xmlns="http://www.w3.org/2000/svg">
<path opacity="0.2" d="M195.493 146.939C195.493 121.469 199.403 99.5918 207.223 81.3061C215.042 62.3674 225.143 47.0204 237.524 35.2653C249.905 22.8572 263.915 14.0408 279.555 8.81633C295.846 2.93878 311.811 0 327.451 0V34.2857C310.508 34.2857 294.543 40.1633 279.555 51.9184C265.219 63.0204 256.747 78.3674 254.141 97.9592C256.096 97.3062 258.377 96.6531 260.983 96C262.938 95.3469 265.219 94.6939 267.825 94.0408C271.084 93.3878 274.668 93.0612 278.577 93.0612C298.127 93.0612 314.418 100.571 327.451 115.592C340.484 129.959 347 146.939 347 166.531C347 186.122 340.158 203.429 326.473 218.449C313.44 232.816 295.846 240 273.69 240C248.928 240 229.704 230.857 216.02 212.571C202.335 193.633 195.493 171.755 195.493 146.939ZM0 146.939C0 121.469 3.90986 99.5918 11.7296 81.3061C19.5493 62.3674 29.6498 47.0204 42.031 35.2653C54.4122 22.8572 68.4225 14.0408 84.062 8.81633C100.353 2.93878 116.318 0 131.958 0V34.2857C115.015 34.2857 99.0498 40.1633 84.062 51.9184C69.7258 63.0204 61.2545 78.3674 58.6479 97.9592C60.6028 97.3062 62.8836 96.6531 65.4901 96C67.4451 95.3469 69.7258 94.6939 72.3324 94.0408C75.5906 93.3878 79.1747 93.0612 83.0845 93.0612C102.634 93.0612 118.925 100.571 131.958 115.592C144.991 129.959 151.507 146.939 151.507 166.531C151.507 186.122 144.665 203.429 130.98 218.449C117.947 232.816 100.353 240 78.1972 240C53.4347 240 34.2113 230.857 20.5268 212.571C6.84225 193.633 0 171.755 0 146.939Z" fill="white"/>
</svg>
