<svg width="347" height="240" fill="none" xmlns="http://www.w3.org/2000/svg"><path opacity=".2" d="M195.493 146.939c0-25.47 3.91-47.347 11.73-65.633 7.819-18.939 17.92-34.286 30.301-46.04 12.381-12.409 26.391-21.225 42.031-26.45C295.846 2.94 311.811 0 327.451 0v34.286c-16.943 0-32.908 5.877-47.896 17.632-14.336 11.102-22.808 26.45-25.414 46.041 1.955-.653 4.236-1.306 6.842-1.959 1.955-.653 4.236-1.306 6.842-1.96 3.259-.652 6.843-.979 10.752-.979 19.55 0 35.841 7.51 48.874 22.531C340.484 129.959 347 146.939 347 166.531c0 19.591-6.842 36.898-20.527 51.918C313.44 232.816 295.846 240 273.69 240c-24.762 0-43.986-9.143-57.67-27.429-13.685-18.938-20.527-40.816-20.527-65.632ZM0 146.939c0-25.47 3.91-47.347 11.73-65.633 7.82-18.939 17.92-34.286 30.301-46.04C54.412 22.856 68.423 14.04 84.062 8.815 100.353 2.94 116.318 0 131.958 0v34.286c-16.943 0-32.908 5.877-47.896 17.632C69.726 63.02 61.255 78.368 58.648 97.96c1.955-.653 4.236-1.306 6.842-1.959 1.955-.653 4.236-1.306 6.842-1.96 3.259-.652 6.843-.979 10.753-.979 19.549 0 35.84 7.51 48.873 22.531 13.033 14.367 19.549 31.347 19.549 50.939 0 19.591-6.842 36.898-20.527 51.918C117.947 232.816 100.353 240 78.197 240c-24.762 0-43.986-9.143-57.67-27.429C6.842 193.633 0 171.755 0 146.939Z" fill="#fff"/></svg>